<svg aria-hidden="true" style="width:0;height:0;position:absolute;overflow:hidden" xmlns="http://www.w3.org/2000/svg"><defs><symbol id="icon-cancel" viewBox="0 0 32 32"><path d="M16 0C7.163 0 0 7.163 0 16s7.163 16 16 16 16-7.163 16-16S24.837 0 16 0zm0 29C8.82 29 3 23.18 3 16S8.82 3 16 3s13 5.82 13 13-5.82 13-13 13z"/><path d="m21 8-5 5-5-5-3 3 5 5-5 5 3 3 5-5 5 5 3-3-5-5 5-5z"/></symbol><symbol id="icon-right" viewBox="0 0 32 32"><path d="M16 0C7.163 0 0 7.163 0 16s7.163 16 16 16 16-7.163 16-16S24.837 0 16 0zm0 29C8.82 29 3 23.18 3 16S8.82 3 16 3s13 5.82 13 13-5.82 13-13 13z"/><path d="m11.086 22.086 2.829 2.829 8.914-8.914-8.914-8.914-2.828 2.828 6.086 6.086z"/></symbol><symbol id="icon-left" viewBox="0 0 32 32"><path d="M16 32c8.837 0 16-7.163 16-16S24.837 0 16 0 0 7.163 0 16s7.163 16 16 16zm0-29c7.18 0 13 5.82 13 13s-5.82 13-13 13S3 23.18 3 16 8.82 3 16 3z"/><path d="m20.914 9.914-2.829-2.829-8.914 8.914 8.914 8.914 2.828-2.828-6.086-6.086z"/></symbol><symbol id="icon-worning" viewBox="0 0 34 32"><path fill="#eb5757" style="fill:var(--color1,#eb5757)" d="M27.733 23.552c0 .666-.228 1.173-.685 1.523s-1.017.525-1.682.525H2.367c-.664 0-1.225-.179-1.682-.538S0 24.2 0 23.552c0-.512.149-1.033.449-1.562L11.936 1.408C12.484.469 13.132 0 13.88 0s1.379.469 1.894 1.408l11.512 20.608c.299.546.448 1.058.448 1.536zM15.598 10.47V6.732h-3.464v3.738c0 .239.017.465.05.678s.079.452.137.717c.058.265.104.491.137.678l.648 4.147h1.47l.673-4.147c.033-.171.083-.393.149-.666s.116-.516.149-.73c.033-.213.05-.439.05-.678zm0 9.908c0-.495-.17-.913-.511-1.254s-.752-.512-1.233-.512c-.465 0-.868.171-1.209.512s-.511.759-.511 1.254.17.917.511 1.267.743.525 1.209.525c.482 0 .893-.175 1.233-.525s.511-.772.511-1.267z"/></symbol></defs></svg>